Coordinates
version=1
nRows=65
nColumns=12
inDegrees=yes

Units are S.I. units (second, meters, Newtons, ...)
Angles are in degrees

endheader
time	SC_y	SC_z	SC_x	AC_y	AC_z	AC_x	GH_y	GH_z	GH_yy	EL_x	PS_y
       0.0              -19.65          36.07          28.92          58.08           8.17         -8.507          32.31           63.2         -166.2          116.5          33.69
   0.04585              -19.65          36.07          28.91          58.08          8.167         -8.508          32.33           63.2         -166.2          116.5           33.7
    0.0917              -19.65          36.07          28.91          58.08          8.163          -8.51          32.34           63.2         -166.1          116.5          33.71
    0.1375              -19.65          36.06          28.91          58.08           8.16         -8.511          32.35           63.2         -166.1          116.5          33.72
    0.1834              -19.65          36.06          28.91          58.07          8.156         -8.513          32.37           63.2         -166.1          116.5          33.74
    0.2292              -19.66          36.06          28.91          58.07          8.152         -8.514          32.38           63.2         -166.1          116.5          33.75
    0.2751              -19.66          36.06           28.9          58.07          8.148         -8.516           32.4           63.2         -166.1          116.5          33.77
    0.3209              -19.66          36.06           28.9          58.07          8.143         -8.518          32.41           63.2         -166.1          116.5          33.78
    0.3668              -19.66          36.06           28.9          58.07          8.138          -8.52          32.43           63.2         -166.0          116.5           33.8
    0.4126              -19.67          36.05           28.9          58.07          8.133         -8.523          32.45           63.2         -166.0          116.5          33.82
    0.4585              -19.67          36.05          28.89          58.07          8.128         -8.525          32.47           63.2         -166.0          116.5          33.84
    0.5043              -19.67          36.05          28.89          58.07          8.122         -8.528           32.5           63.2         -166.0          116.5          33.86
    0.5502              -19.68          36.05          28.89          58.07          8.115          -8.53          32.52           63.2         -165.9          116.5          33.88
     0.596              -19.68          36.04          28.88          58.07          8.108         -8.533          32.55          63.21         -165.9          116.5          33.91
    0.6419              -19.69          36.04          28.88          58.06            8.1         -8.537          32.57          63.21         -165.9          116.5          33.94
    0.6877              -19.69          36.04          28.87          58.06          8.092          -8.54          32.61          63.21         -165.8          116.5          33.97
    0.7336               -19.7          36.03          28.87          58.06          8.083         -8.544          32.64          63.21         -165.8          116.5           34.0
    0.7794               -19.7          36.03          28.86          58.06          8.074         -8.548          32.68          63.21         -165.8          116.5          34.04
    0.8253              -19.71          36.02          28.86          58.06          8.063         -8.553          32.72          63.21         -165.7          116.5          34.07
    0.8711              -19.71          36.02          28.85          58.06          8.051         -8.558          32.76          63.21         -165.7          116.5          34.12
     0.917              -19.72          36.01          28.84          58.05          8.038         -8.564          32.81          63.21         -165.6          116.5          34.16
    0.9628              -19.73          36.01          28.83          58.05          8.024          -8.57          32.86          63.22         -165.6          116.5          34.21
     1.009              -19.74           36.0          28.82          58.05          8.009         -8.576          32.92          63.22         -165.5          116.5          34.27
     1.055              -19.75          35.99          28.82          58.04          7.992         -8.584          32.99          63.22         -165.4          116.5          34.33
       1.1              -19.76          35.99           28.8          58.04          7.972         -8.592          33.06          63.22         -165.4          116.5           34.4
     1.146              -19.77          35.98          28.79          58.04          7.951         -8.601          33.14          63.23         -165.3          116.5          34.48
     1.192              -19.78          35.97          28.78          58.03          7.927         -8.612          33.23          63.23         -165.2          116.5          34.57
     1.238               -19.8          35.96          28.76          58.03            7.9         -8.623          33.33          63.23         -165.1          116.5          34.67
     1.284              -19.81          35.94          28.75          58.02           7.87         -8.637          33.44          63.24         -164.9          116.5          34.78
      1.33              -19.83          35.93          28.73          58.02          7.835         -8.652          33.57          63.24         -164.8          116.5           34.9
     1.375              -19.85          35.91           28.7          58.01          7.796         -8.669          33.72          63.25         -164.6          116.5          35.05
     1.421              -19.88          35.89          28.68           58.0           7.75         -8.688          33.89          63.25         -164.4          116.5          35.21
     1.467              -19.91          35.87          28.65          57.99          7.698         -8.711          34.09          63.26         -164.2          116.5           35.4
     1.513              -19.94          35.85          28.61          57.98          7.637         -8.737          34.32          63.27         -164.0          116.5          35.62
     1.559              -19.98          35.82          28.57          57.97          7.566         -8.768          34.59          63.28         -163.7          116.5          35.88
     1.605              -20.03          35.78          28.53          57.95          7.483         -8.804           34.9          63.29         -163.3          116.5          36.19
     1.651              -20.08          35.74          28.47          57.93          7.383         -8.847          35.28           63.3         -162.9          116.5          36.55
     1.696              -20.15          35.69           28.4          57.91          7.264         -8.899          35.73          63.32         -162.4          116.4          36.98
     1.742              -20.23          35.63          28.32          57.88          7.119         -8.961          36.27          63.34         -161.8          116.4          37.51
     1.788              -20.32          35.56          28.22          57.85          6.943         -9.038          36.94          63.36         -161.1          116.4          38.15
     1.834              -20.44          35.47           28.1          57.81          6.725         -9.132          37.76          63.39         -160.2          116.4          38.94
      1.88              -20.59          35.35          27.94          57.76          6.454         -9.249          38.78          63.42         -159.1          116.4          39.93
     1.926              -20.78          35.21          27.75           57.7          6.112         -9.397          40.07          63.47         -157.6          116.3          41.17
     1.971              -21.02          35.03           27.5          57.62          5.677         -9.586          41.71          63.52         -155.8          116.3          42.75
     2.017              -21.33           34.8          27.19          57.52          5.121         -9.826           43.8           63.6         -153.5          116.2          44.77
     2.063              -21.72           34.5          26.78          57.38          4.407         -10.14          46.49          63.69         -150.6          116.1          47.37
     2.109              -22.23          34.12          26.26          57.22          3.495         -10.53          49.93          63.81         -146.8          116.0          50.69
     2.155              -22.86          33.64          25.61           57.0          2.349         -11.03          54.25          63.96         -142.1          115.9          54.86
     2.201              -23.63          33.05          24.82          56.75         0.9513         -11.63          59.52          64.14         -136.3          115.8          59.94
     2.247              -24.53          32.38           23.9          56.45        -0.6684         -12.33          65.62          64.35         -129.6          115.6          65.83
     2.292               -25.5          31.65          22.91          56.12         -2.422         -13.09          72.23          64.58         -122.3          115.4          72.21
     2.338              -26.46          30.91          21.91           55.8         -4.176         -13.85          78.84          64.81         -115.0          115.2          78.59
     2.384              -27.36          30.24          20.99           55.5         -5.796         -14.55          84.95          65.03         -108.3          115.1          84.48
      2.43              -28.13          29.65           20.2          55.25         -7.193         -15.16          90.21          65.21         -102.6          114.9          89.56
     2.476              -28.76          29.18          19.55          55.03          -8.34         -15.65          94.53          65.36         -97.81          114.8          93.73
     2.522              -29.27           28.8          19.03          54.87         -9.252         -16.05          97.97          65.48         -94.03          114.7          97.05
     2.567              -29.66           28.5          18.63          54.73         -9.965         -16.36          100.7          65.57         -91.07          114.6          99.65
     2.613              -29.97          28.27          18.31          54.63         -10.52          -16.6          102.8          65.65         -88.77          114.6          101.7
     2.659              -30.21          28.08          18.07          54.55         -10.96         -16.79          104.4           65.7         -86.97          114.5          103.3
     2.705               -30.4          27.94          17.87          54.49          -11.3         -16.93          105.7          65.75         -85.55          114.5          104.5
     2.751              -30.55          27.83          17.72          54.44         -11.57         -17.05          106.7          65.78         -84.43          114.5          105.5
     2.797              -30.67          27.74           17.6           54.4         -11.79         -17.14          107.5          65.81         -83.53          114.4          106.3
     2.843              -30.76          27.66           17.5          54.37         -11.96         -17.22          108.2          65.83          -82.8          114.4          106.9
     2.888              -30.84           27.6          17.41          54.34         -12.11         -17.28          108.7          65.85          -82.2          114.4          107.4
     2.934              -30.91          27.55          17.35          54.32         -12.23         -17.34          109.2          65.87         -81.71          114.4          107.9
